# xmcd
#
# Track frame offsets:
#	150
#	6002
#	20444
#	33948
#	48063
#	62386
#	84089
#	99901
#	114559
#	130360
#
# Disc length: 1784 seconds
# Revision: 0
# Processed by: cddbd v1.5.2PL0 Copyright (c) Steve Scherf et al.
# Submitted via: dBpowerAMP V12.0
#
DISCID=6606f60a
DTITLE=Various Artist - There Is No Competition
DYEAR=2010
DGENRE=Hip Hop
TTITLE0=Fabolous - The Eulogy (Intro)
TTITLE1=Fabolous - The Wake
TTITLE2=Fabolous - I'm Raw
TTITLE3=Fabolous - Body Ya
TTITLE4=Fabolous - Body Count
TTITLE5=Fabolous featuring Cam'Ron and Vado - Body Bag Remix
TTITLE6=Fabolous - You Be Killin Em
TTITLE7=Fabolous featuring Red Café - Tonight
TTITLE8=Fabolous - Lights Out
TTITLE9=Fabolous - Closing Prayer (Outro)
EXTD=
EXTT0=
EXTT1=
EXTT2=
EXTT3=
EXTT4=
EXTT5=
EXTT6=
EXTT7=
EXTT8=
EXTT9=
PLAYORDER=
